# xmcd CD database file
#
# Track frame offsets:
#	150
#	15202
#	30827
#	45550
#	61487
#	83142
#	105217
#	122240
#	127800
#	146707
#
# Disc length: 2212 seconds
#
# Revision: 2
# Processed by: cddbd v1.5.2PL0 Copyright (c) Steve Scherf et al.
# Submitted via: CDex 1.50beta10
#
DISCID=6f08a20a
DTITLE=Wet Willie - Manorisms
DYEAR=1977
DGENRE=Southern Rock
TTITLE0=Rainman
TTITLE1=Make You Feel Love Again
TTITLE2=So Blue
TTITLE3=We Got Lovin'
TTITLE4=Don't Turn Me Away
TTITLE5=Street Corner Serenade
TTITLE6=One Track Mind
TTITLE7=How 'Bout You
TTITLE8=Doin' All The Right Things (The Wrong Way)
TTITLE9=Let It Shine
EXTD=YEAR: 1977
EXTT0=
EXTT1=
EXTT2=
EXTT3=
EXTT4=
EXTT5=
EXTT6=
EXTT7=
EXTT8=
EXTT9=
PLAYORDER=
